HIERARCHY
ROOT Hips
{
	OFFSET -0.001795 -0.223333 0.028219
	CHANNELS 6 Xposition Yposition Zposition Zrotation Yrotation Xrotation 
	JOINT LeftUpLeg
	{
		OFFSET 0.069520 -0.091406 -0.006815
		CHANNELS 3 Zrotation Yrotation Xrotation
		JOINT LeftLeg
		{
			OFFSET 0.034277 -0.375199 -0.004496
			CHANNELS 3 Zrotation Yrotation Xrotation
			JOINT LeftFoot
			{
				OFFSET -0.013596 -0.397961 -0.043693
				CHANNELS 3 Zrotation Yrotation Xrotation
				JOINT LeftToe
				{
					OFFSET 0.026358 -0.055791 0.119288
					CHANNELS 3 Zrotation Yrotation Xrotation
					End Site
					{
						OFFSET 0.000000 0.000000 0.000000
					}
				}
			}
		}
	}
	JOINT RightUpLeg
	{
		OFFSET -0.067670 -0.090522 -0.004320
		CHANNELS 3 Zrotation Yrotation Xrotation
		JOINT RightLeg
		{
			OFFSET -0.038290 -0.382569 -0.008850
			CHANNELS 3 Zrotation Yrotation Xrotation
			JOINT RightFoot
			{
				OFFSET 0.015774 -0.398415 -0.042312
				CHANNELS 3 Zrotation Yrotation Xrotation
				JOINT RightToe
				{
					OFFSET -0.025372 -0.048144 0.123348
					CHANNELS 3 Zrotation Yrotation Xrotation
					End Site
					{
						OFFSET 0.000000 0.000000 0.000000
					}
				}
			}
		}
	}
	JOINT Spine
	{
		OFFSET -0.002533 0.108963 -0.026696
		CHANNELS 3 Zrotation Yrotation Xrotation
		JOINT Spine1
		{
			OFFSET 0.005487 0.135180 0.001092
			CHANNELS 3 Zrotation Yrotation Xrotation
			JOINT Spine2
			{
				OFFSET 0.001457 0.052922 0.025425
				CHANNELS 3 Zrotation Yrotation Xrotation
				JOINT Neck
				{
					OFFSET -0.002778 0.213870 -0.042857
					CHANNELS 3 Zrotation Yrotation Xrotation
					JOINT Head
					{
						OFFSET 0.005152 0.064970 0.051349
						CHANNELS 3 Zrotation Yrotation Xrotation
						End Site
						{
							OFFSET 0.000000 0.000000 0.000000
						}
					}
				}
				JOINT LeftShoulder
				{
					OFFSET 0.078845 0.121749 -0.034090
					CHANNELS 3 Zrotation Yrotation Xrotation
					JOINT LeftArm
					{
						OFFSET 0.090977 0.030469 -0.008868
						CHANNELS 3 Zrotation Yrotation Xrotation
						JOINT LeftForeArm
						{
							OFFSET 0.259612 -0.012772 -0.027456
							CHANNELS 3 Zrotation Yrotation Xrotation
							JOINT LeftHand
							{
								OFFSET 0.249234 0.008986 -0.001171
								CHANNELS 3 Zrotation Yrotation Xrotation
								End Site
								{
									OFFSET 0.000000 0.000000 0.000000
								}
							}
						}
					}
				}
				JOINT RightShoulder
				{
					OFFSET -0.081759 0.118833 -0.038615
					CHANNELS 3 Zrotation Yrotation Xrotation
					JOINT RightArm
					{
						OFFSET -0.096012 0.032551 -0.009143
						CHANNELS 3 Zrotation Yrotation Xrotation
						JOINT RightForeArm
						{
							OFFSET -0.253742 -0.013329 -0.021401
							CHANNELS 3 Zrotation Yrotation Xrotation
							JOINT RightHand
							{
								OFFSET -0.255298 0.007772 -0.005559
								CHANNELS 3 Zrotation Yrotation Xrotation
								End Site
								{
									OFFSET 0.000000 0.000000 0.000000
								}
							}
						}
					}
				}
			}
		}
	}
}
MOTION
Frames: 10
Frame Time: 0.050000
0.000000 0.913406 0.000000 -3.331882 13.369661 0.517938 8.208527 -1.321569 -22.994971 -19.017037 5.962299 59.171941 11.220176 22.852922 5.436313 0.000000 0.000000 0.000000 5.730316 1.845563 -13.514917 -1.355991 0.345407 28.815299 -2.437786 -1.059651 -18.114150 0.000000 0.000000 0.000000 7.480253 -1.275859 9.540982 1.599154 -1.022970 2.598204 -2.413378 -2.400789 2.919687 4.151229 -1.096348 -14.383466 0.000000 0.000000 0.000000 -19.230027 -9.840755 2.110803 -35.179158 -13.082067 -0.124880 9.616883 -47.093714 -2.987063 0.000000 0.000000 0.000000 16.446023 -3.921171 -2.643075 44.508674 -12.257550 -8.406970 10.357708 34.253288 4.572416 0.000000 0.000000 0.000000 
0.029400 0.911924 0.070443 -3.311805 8.993526 0.228544 11.967756 -0.697861 -29.791535 -18.849863 6.789237 50.449392 10.863673 22.270341 5.293019 0.000000 0.000000 0.000000 5.181280 0.901712 -6.616239 -4.013255 1.759386 26.979583 -0.356639 6.372371 -13.784281 0.000000 0.000000 0.000000 6.569102 -1.521633 12.905140 0.717799 -0.191263 -2.488497 -1.021170 1.849132 5.385688 3.215135 0.297094 -19.459287 0.000000 0.000000 0.000000 -20.148091 -6.562639 -0.266907 -36.923204 -7.890386 -1.550236 5.259879 -48.407449 -1.464854 0.000000 0.000000 0.000000 15.424925 -5.671190 -2.996989 46.924883 -9.170558 -8.045250 8.047674 37.351250 4.670599 0.000000 0.000000 0.000000 
0.061610 0.908419 0.144082 -3.509694 4.589016 -0.766912 12.029711 -0.283597 -35.366876 -9.736884 2.473630 40.752538 10.667146 21.774509 7.334967 0.000000 0.000000 0.000000 3.280008 -0.265350 1.622125 -2.814986 1.569200 23.475905 -1.103795 6.809302 -16.067330 0.000000 0.000000 0.000000 5.673755 -1.404716 13.877129 0.242341 0.063767 -4.179689 -1.048452 5.196347 9.119675 4.179652 0.034148 -20.807031 0.000000 0.000000 0.000000 -20.804177 -3.637846 -2.126397 -38.414035 -2.062379 -3.546449 -2.904855 -49.605412 2.141954 0.000000 0.000000 0.000000 17.224354 -3.383051 -1.543804 47.697537 -3.885719 -6.728176 3.331904 38.393211 3.431417 0.000000 0.000000 0.000000 
0.097411 0.908367 0.222583 -3.392101 1.141739 -0.676616 13.607874 0.680485 -35.860601 -6.560137 1.215030 24.446889 11.172567 22.170682 14.938679 0.000000 0.000000 0.000000 0.563883 -1.023241 9.326587 -5.245337 2.236193 19.482816 0.153062 9.811609 -12.867358 0.000000 0.000000 0.000000 4.347011 -1.144607 13.677749 -0.979707 0.541821 -3.415258 0.249215 9.158238 8.781921 5.057596 0.274068 -24.476038 0.000000 0.000000 0.000000 -20.256405 -3.000967 -2.941949 -39.989773 2.724039 -5.030471 -9.208439 -46.016815 4.353308 0.000000 0.000000 0.000000 16.593654 -4.038782 -1.505189 48.924285 -1.170153 -5.834437 3.850955 40.002038 4.072493 0.000000 0.000000 0.000000 
0.139091 0.907335 0.308513 -2.749185 -1.113806 -0.813938 14.000453 1.113996 -34.845129 -6.300990 1.157387 19.053524 9.876402 20.086054 20.259631 0.000000 0.000000 0.000000 -2.493693 -1.209775 16.451373 -6.977568 2.349377 15.280586 1.416502 8.480305 -6.486159 0.000000 0.000000 0.000000 3.165249 -0.827158 11.904980 -2.273529 1.096003 -2.529279 1.841194 9.932553 9.224894 4.640965 0.215578 -22.899745 0.000000 0.000000 0.000000 -21.677404 -2.409946 -3.380931 -40.854795 6.897510 -6.483979 -7.407749 -41.745802 3.380665 0.000000 0.000000 0.000000 18.290894 -2.671458 -0.862691 48.579016 2.054302 -4.767132 2.623740 41.815788 3.826188 0.000000 0.000000 0.000000 
0.185240 0.908258 0.400366 -1.855780 -1.076621 -0.018009 11.471790 0.312703 -34.114032 -8.117172 1.917663 24.338064 10.026712 20.300203 18.710175 0.000000 0.000000 0.000000 -6.239210 -0.635422 18.204287 -6.765382 2.689071 18.944913 2.205514 5.477127 0.303287 0.000000 0.000000 0.000000 2.086355 -0.550448 9.089474 -2.522917 1.210586 -0.528789 2.278710 10.754956 8.068853 6.024001 -0.332916 -23.739017 0.000000 0.000000 0.000000 -22.318981 -2.373153 -3.789106 -41.324324 8.469287 -6.917200 -8.187158 -38.657857 3.335739 0.000000 0.000000 0.000000 19.077586 -2.351553 -0.544436 49.810891 2.015441 -4.814016 0.031503 42.992488 3.077065 0.000000 0.000000 0.000000 
0.231378 0.913374 0.489375 -1.162685 -0.355421 0.405011 7.915582 -0.773533 -31.418291 -9.295131 2.519572 29.058706 10.790058 21.487274 14.519369 0.000000 0.000000 0.000000 -8.353428 -0.171419 14.243118 -7.630857 4.328982 30.858893 5.678306 4.616903 14.648723 0.000000 0.000000 0.000000 1.850496 -0.480534 8.116511 -1.631951 0.790485 -0.862651 1.206261 10.633389 7.343852 7.275990 -1.036994 -23.146794 0.000000 0.000000 0.000000 -22.314549 -3.180528 -3.511222 -42.502631 9.152102 -7.285717 -8.732554 -37.046120 3.328321 0.000000 0.000000 0.000000 19.408195 -3.578605 -1.160522 50.791453 0.555979 -5.403233 2.395258 45.101451 4.328218 0.000000 0.000000 0.000000 
0.272231 0.926513 0.569300 -1.276864 1.126869 0.560329 3.868173 -1.555445 -24.814649 -8.025596 1.825493 27.947255 10.745055 21.679427 6.517012 0.000000 0.000000 0.000000 -6.775610 -0.105563 5.894199 -7.530053 6.008238 46.568876 5.921408 2.116864 21.125737 0.000000 0.000000 0.000000 2.103003 -0.573956 9.138258 -1.448371 0.726128 -2.098023 0.528101 9.247507 6.555906 6.894493 -0.616361 -24.949439 0.000000 0.000000 0.000000 -22.549198 -4.285846 -2.807679 -41.971064 7.488235 -6.592563 -8.466537 -34.063599 3.055687 0.000000 0.000000 0.000000 20.155248 -3.607380 -1.327930 50.434901 -0.233327 -5.640196 5.406403 43.301683 5.113517 0.000000 0.000000 0.000000 
0.307963 0.944804 0.642722 -1.975707 2.942268 -0.541247 0.934359 -1.357373 -15.584981 -5.147916 0.597369 23.099412 9.670269 19.787415 4.381380 0.000000 0.000000 0.000000 -3.907894 0.327193 -4.023272 -4.184269 4.589272 58.949019 1.724939 -3.282112 17.061568 0.000000 0.000000 0.000000 2.636182 -0.764391 11.087383 -0.637169 0.412724 -3.616837 -0.555912 6.626964 7.771123 6.427243 -0.323884 -26.845256 0.000000 0.000000 0.000000 -22.776870 -4.510822 -2.221483 -40.966300 4.725076 -5.731710 -7.839166 -35.213843 3.113214 0.000000 0.000000 0.000000 20.963620 -3.263418 -1.456098 49.862848 0.300243 -5.507891 7.695535 42.348151 5.663319 0.000000 0.000000 0.000000 
0.341085 0.963310 0.714676 -2.367918 5.226565 -0.060645 -2.082274 -0.716287 -6.943600 -2.528339 -0.128014 16.205169 8.489815 17.596111 4.006299 0.000000 0.000000 0.000000 -0.884214 1.376505 -15.571020 -0.685661 1.240282 64.740290 -1.241423 -6.447923 9.750840 0.000000 0.000000 0.000000 3.408583 -0.867026 10.929659 -0.091611 0.208941 -3.989474 -1.242217 3.324202 7.177873 6.015719 -0.378577 -26.727705 0.000000 0.000000 0.000000 -21.704265 -5.592517 -0.849964 -41.650167 2.386980 -5.254878 -6.518082 -38.223245 3.110571 0.000000 0.000000 0.000000 20.753586 -2.974026 -1.821800 49.837199 0.457857 -5.256544 6.665350 41.021216 4.792027 0.000000 0.000000 0.000000 
